<svg id="svg" version="1.1" xmlns="http://www.w3.org/2000/svg" xmlns:xlink="http://www.w3.org/1999/xlink" width="400" height="400" viewBox="0, 0, 400,400"><g id="svgg"><path id="path0" d="M156.428 7.085 C 150.559 7.642,146.476 14.875,148.799 20.599 C 150.627 25.101,154.171 27.200,159.946 27.200 L 163.200 27.200 163.200 38.764 L 163.200 50.328 160.300 50.764 C 155.678 51.459,152.421 52.022,149.200 52.684 C 147.550 53.023,145.390 53.453,144.400 53.640 C 141.463 54.193,135.631 55.859,129.400 57.922 C 116.619 62.156,98.285 71.673,90.000 78.373 C 88.371 79.691,88.096 79.505,80.696 72.096 C 72.773 64.164,73.075 64.661,75.034 62.778 C 82.325 55.770,78.327 44.800,68.483 44.800 C 66.142 44.800,65.490 44.969,63.869 45.997 C 61.176 47.705,35.514 73.532,34.600 75.453 C 29.538 86.106,43.358 94.571,51.808 85.992 C 54.464 83.295,54.167 83.156,61.555 90.555 L 68.100 97.109 64.792 100.855 C 56.068 110.730,50.491 118.542,44.526 129.245 C 42.050 133.688,38.400 140.927,38.400 141.396 C 38.400 141.495,37.964 142.530,37.431 143.695 C 34.871 149.292,30.740 161.729,29.424 167.800 C 29.281 168.460,28.991 169.720,28.780 170.600 C 28.042 173.668,27.501 176.836,25.941 187.200 C 25.248 191.804,25.249 216.457,25.942 221.400 C 27.054 229.328,28.104 235.196,29.199 239.600 C 30.787 245.992,33.720 255.765,34.779 258.200 C 34.970 258.640,35.576 260.170,36.126 261.600 C 46.478 288.540,65.085 311.841,92.000 331.572 C 94.054 333.077,100.011 336.790,105.000 339.674 C 106.606 340.602,113.705 344.108,116.200 345.205 C 120.129 346.933,120.652 347.146,124.800 348.719 C 133.073 351.856,140.338 353.976,148.200 355.549 C 154.417 356.792,155.332 356.939,163.539 358.017 C 167.898 358.589,191.763 358.581,196.070 358.006 C 203.459 357.019,206.825 356.477,211.000 355.601 C 211.880 355.416,213.680 355.049,215.000 354.786 C 220.988 353.591,233.199 349.533,241.600 345.947 C 244.125 344.869,254.011 339.959,255.800 338.894 C 256.460 338.501,257.900 337.654,259.000 337.012 C 260.943 335.877,267.153 331.730,270.800 329.133 C 275.963 325.455,285.445 317.308,289.405 313.147 C 293.016 309.353,298.090 303.710,299.260 302.188 C 299.762 301.535,300.273 300.910,300.395 300.800 C 301.159 300.113,305.198 294.603,307.980 290.454 C 317.158 276.764,323.768 262.659,328.344 247.000 C 329.504 243.033,331.059 236.392,330.872 236.206 C 330.380 235.713,308.375 235.999,308.235 236.500 C 308.157 236.775,307.903 237.720,307.669 238.600 C 306.525 242.900,304.150 250.108,302.792 253.400 C 302.611 253.840,302.133 255.004,301.731 255.986 C 299.791 260.726,294.716 270.422,292.406 273.800 C 291.805 274.680,291.033 275.940,290.691 276.600 C 290.350 277.260,288.299 280.170,286.135 283.066 C 268.385 306.818,243.567 323.961,215.800 331.650 C 214.920 331.893,213.750 332.240,213.200 332.419 C 211.401 333.006,205.065 334.357,202.000 334.809 C 200.350 335.051,198.010 335.421,196.800 335.631 C 195.590 335.840,191.225 336.191,187.100 336.410 C 176.618 336.968,165.615 336.361,157.469 334.776 C 156.408 334.569,155.070 334.400,154.498 334.400 C 153.925 334.400,152.904 334.232,152.228 334.027 C 151.553 333.822,150.235 333.462,149.300 333.227 C 144.305 331.972,142.706 331.503,136.904 329.590 C 134.212 328.702,131.152 327.611,130.104 327.166 C 129.057 326.720,127.480 326.053,126.600 325.684 C 107.263 317.555,87.380 301.796,73.754 283.800 C 71.355 280.632,66.400 273.393,66.400 273.056 C 66.400 272.960,65.649 271.648,64.731 270.141 C 63.353 267.876,58.434 257.984,57.203 255.000 C 55.583 251.072,53.542 245.330,52.759 242.500 C 52.562 241.785,52.208 240.525,51.973 239.700 C 48.995 229.227,47.212 215.881,47.206 204.000 C 47.198 191.222,48.812 180.175,52.787 165.800 C 58.917 143.631,73.355 121.561,93.611 103.396 C 101.566 96.263,118.543 85.770,128.200 82.018 C 128.640 81.847,129.540 81.479,130.200 81.200 C 130.860 80.921,131.760 80.544,132.200 80.361 C 138.657 77.681,151.538 74.353,159.800 73.230 C 161.780 72.961,164.155 72.574,165.077 72.370 C 167.274 71.885,191.633 71.890,194.433 72.376 C 195.625 72.583,197.950 72.954,199.600 73.201 C 204.575 73.946,207.213 74.467,211.200 75.491 C 216.708 76.906,219.181 77.610,222.600 78.733 C 228.814 80.775,237.363 84.587,243.394 88.004 C 244.167 88.442,245.411 89.146,246.158 89.569 C 259.444 97.099,274.698 110.308,283.608 122.000 C 284.362 122.990,285.075 123.890,285.193 124.000 C 286.127 124.877,292.230 134.048,294.907 138.598 C 295.920 140.319,300.879 150.331,301.651 152.214 C 302.853 155.146,304.472 159.386,305.082 161.200 C 305.415 162.190,305.870 163.225,306.093 163.500 C 306.584 164.106,328.209 164.233,328.580 163.633 C 329.136 162.733,324.828 149.911,321.312 142.000 C 320.326 139.781,315.644 130.322,314.877 129.000 C 310.904 122.151,305.874 114.435,303.377 111.360 C 302.645 110.459,301.377 108.839,300.560 107.760 C 299.743 106.682,298.968 105.710,298.837 105.600 C 298.707 105.490,297.250 103.870,295.600 102.000 C 293.950 100.130,292.465 98.540,292.300 98.467 C 291.334 98.037,292.683 96.308,298.573 90.427 L 305.146 83.863 307.604 86.139 C 316.295 94.186,329.397 86.306,324.982 75.687 C 324.103 73.573,297.240 46.695,294.913 45.601 C 284.271 40.599,275.975 53.516,284.038 62.534 L 286.124 64.868 278.966 72.034 C 270.990 80.019,271.399 79.802,268.488 77.596 C 266.451 76.051,264.652 74.894,257.800 70.718 C 253.479 68.084,244.648 63.679,240.000 61.837 C 237.910 61.009,235.660 60.089,235.000 59.792 C 233.567 59.147,225.335 56.409,221.400 55.268 C 217.161 54.040,212.565 53.033,204.600 51.589 C 203.500 51.390,201.648 51.124,200.484 50.998 C 199.321 50.871,197.923 50.599,197.378 50.392 L 196.388 50.015 196.494 38.708 L 196.600 27.400 200.400 27.200 C 207.841 26.808,211.423 23.469,211.377 16.967 C 211.345 12.483,210.032 10.193,206.200 7.941 L 204.600 7.000 181.400 6.958 C 168.640 6.935,157.403 6.992,156.428 7.085 M170.600 131.694 C 169.060 131.899,166.630 132.334,165.200 132.661 C 163.770 132.987,161.880 133.412,161.000 133.604 C 147.165 136.627,130.882 147.687,121.203 160.635 C 118.687 164.001,118.685 164.000,124.544 164.000 L 129.440 164.000 132.959 160.189 C 140.095 152.459,150.161 146.044,160.000 142.958 C 163.653 141.812,164.245 141.654,166.400 141.249 C 177.595 139.143,189.009 139.655,199.250 142.721 C 204.239 144.215,209.700 146.827,214.788 150.153 C 217.105 151.668,219.090 153.026,219.200 153.172 C 219.310 153.319,220.030 153.876,220.800 154.411 C 222.205 155.386,226.121 159.234,228.871 162.339 L 230.341 164.000 235.371 164.000 C 241.221 164.000,241.079 164.209,238.015 160.086 C 231.550 151.383,220.609 142.539,210.831 138.112 C 209.164 137.357,207.221 136.478,206.514 136.157 C 204.862 135.410,200.658 134.054,198.600 133.604 C 197.720 133.412,195.830 132.991,194.400 132.670 C 187.972 131.227,177.366 130.791,170.600 131.694 M114.400 236.375 C 114.400 237.302,119.865 246.223,122.292 249.258 C 131.267 260.478,145.754 270.531,157.800 273.898 C 167.292 276.551,170.231 276.960,179.800 276.960 C 188.306 276.960,190.893 276.689,197.000 275.159 C 208.696 272.228,217.607 267.642,227.441 259.492 C 230.641 256.841,232.321 255.133,236.588 250.200 C 239.194 247.186,245.200 237.572,245.200 236.413 C 245.200 236.154,243.524 236.000,240.693 236.000 L 236.187 236.000 234.828 238.300 C 227.871 250.073,215.876 259.812,201.800 265.116 C 197.997 266.549,196.312 266.954,188.233 268.382 C 185.335 268.894,174.749 268.933,172.120 268.441 C 171.064 268.243,168.940 267.862,167.400 267.594 C 160.184 266.335,151.786 263.091,146.528 259.532 C 145.608 258.909,144.754 258.400,144.630 258.400 C 144.506 258.400,142.961 257.298,141.198 255.950 C 134.542 250.863,130.426 246.465,125.803 239.500 L 123.480 236.000 118.940 236.000 C 116.379 236.000,114.400 236.164,114.400 236.375 " stroke="none" fill="#0e1d5d" fill-rule="evenodd"></path><path id="path1" d="M156.623 6.747 C 155.975 6.886,166.495 7.000,180.000 7.000 C 193.505 7.000,204.025 6.886,203.377 6.747 C 202.730 6.608,192.210 6.495,180.000 6.495 C 167.790 6.495,157.270 6.608,156.623 6.747 M152.700 8.088 C 151.875 8.566,151.200 9.096,151.200 9.267 C 151.200 9.437,151.870 9.121,152.690 8.565 C 155.111 6.922,155.116 6.687,152.700 8.088 M207.000 8.257 C 209.037 10.064,209.787 10.591,209.002 9.663 C 208.566 9.148,207.847 8.541,207.404 8.314 C 206.962 8.087,206.780 8.062,207.000 8.257 M211.383 16.951 C 211.392 18.610,211.522 19.659,211.672 19.283 C 212.030 18.383,212.020 15.593,211.655 14.667 C 211.496 14.264,211.374 15.292,211.383 16.951 M150.141 23.637 C 150.463 24.097,151.148 24.755,151.663 25.100 C 152.282 25.514,152.132 25.230,151.222 24.263 C 149.677 22.624,149.263 22.384,150.141 23.637 M208.358 24.513 C 207.784 25.001,206.974 25.628,206.558 25.906 C 206.113 26.202,206.296 26.178,207.001 25.847 C 207.661 25.536,208.544 24.903,208.963 24.441 C 209.945 23.356,209.679 23.387,208.358 24.513 M196.667 27.467 C 196.297 27.836,196.329 49.909,196.700 50.138 C 196.865 50.240,197.000 45.121,197.000 38.762 C 197.000 32.403,196.985 27.200,196.967 27.200 C 196.948 27.200,196.813 27.320,196.667 27.467 M67.507 44.690 C 68.226 44.779,69.306 44.777,69.907 44.686 C 70.508 44.595,69.920 44.522,68.600 44.524 C 67.280 44.526,66.788 44.601,67.507 44.690 M289.507 44.690 C 290.226 44.779,291.306 44.777,291.907 44.686 C 292.508 44.595,291.920 44.522,290.600 44.524 C 289.280 44.526,288.788 44.601,289.507 44.690 M62.562 46.462 L 61.800 47.324 62.900 46.616 C 64.034 45.886,64.249 45.600,63.662 45.600 C 63.476 45.600,62.981 45.988,62.562 46.462 M284.624 46.213 C 284.196 46.536,284.027 46.800,284.247 46.800 C 284.467 46.800,284.996 46.536,285.424 46.213 C 285.851 45.890,286.020 45.625,285.800 45.625 C 285.580 45.625,285.051 45.890,284.624 46.213 M76.000 47.800 C 76.746 48.570,77.447 49.200,77.557 49.200 C 77.667 49.200,77.146 48.570,76.400 47.800 C 75.654 47.030,74.953 46.400,74.843 46.400 C 74.733 46.400,75.254 47.030,76.000 47.800 M310.603 60.390 C 318.301 68.195,324.669 74.675,324.754 74.790 C 324.839 74.906,324.715 74.640,324.479 74.200 C 324.243 73.760,317.875 67.280,310.328 59.800 L 296.605 46.200 310.603 60.390 M158.200 50.800 C 156.537 51.223,158.174 51.242,160.200 50.823 C 161.545 50.545,161.609 50.492,160.600 50.493 C 159.940 50.494,158.860 50.632,158.200 50.800 M199.000 50.800 C 199.660 50.968,200.740 51.105,201.400 51.105 L 202.600 51.105 201.400 50.800 C 200.740 50.632,199.660 50.495,199.000 50.495 L 197.800 50.495 199.000 50.800 M153.200 51.600 C 152.408 51.854,152.367 51.920,153.000 51.920 C 153.440 51.920,154.250 51.776,154.800 51.600 C 155.592 51.346,155.633 51.280,155.000 51.280 C 154.560 51.280,153.750 51.424,153.200 51.600 M204.600 51.600 C 205.040 51.789,205.760 51.944,206.200 51.944 L 207.000 51.944 206.200 51.600 C 205.760 51.411,205.040 51.256,204.600 51.256 L 203.800 51.256 204.600 51.600 M78.600 54.802 C 78.600 56.519,78.732 57.716,78.894 57.462 C 79.056 57.208,79.188 56.010,79.188 54.800 C 79.188 53.590,79.056 52.393,78.894 52.140 C 78.732 51.887,78.600 53.085,78.600 54.802 M148.800 52.400 C 148.008 52.654,147.967 52.720,148.600 52.720 C 149.040 52.720,149.850 52.576,150.400 52.400 C 151.192 52.146,151.233 52.080,150.600 52.080 C 150.160 52.080,149.350 52.224,148.800 52.400 M209.000 52.400 C 209.440 52.589,210.160 52.744,210.600 52.744 L 211.400 52.744 210.600 52.400 C 210.160 52.211,209.440 52.056,209.000 52.056 L 208.200 52.056 209.000 52.400 M280.252 52.900 C 279.942 54.055,279.980 56.008,280.328 56.884 C 280.478 57.260,280.610 56.315,280.622 54.784 C 280.647 51.742,280.611 51.560,280.252 52.900 M145.000 53.200 L 144.200 53.544 145.000 53.544 C 145.440 53.544,146.160 53.389,146.600 53.200 L 147.400 52.856 146.600 52.856 C 146.160 52.856,145.440 53.011,145.000 53.200 M213.000 53.200 C 213.440 53.389,214.160 53.538,214.600 53.532 C 215.243 53.523,215.204 53.457,214.400 53.200 C 213.032 52.762,211.981 52.762,213.000 53.200 M141.400 54.000 C 140.896 54.217,140.822 54.344,141.200 54.344 C 141.530 54.344,142.160 54.189,142.600 54.000 C 143.104 53.783,143.178 53.656,142.800 53.656 C 142.470 53.656,141.840 53.811,141.400 54.000 M216.600 54.000 C 217.040 54.189,217.760 54.344,218.200 54.344 L 219.000 54.344 218.200 54.000 C 217.760 53.811,217.040 53.656,216.600 53.656 L 215.800 53.656 216.600 54.000 M138.400 54.800 C 137.867 55.145,137.867 55.188,138.400 55.188 C 138.730 55.188,139.270 55.013,139.600 54.800 C 140.133 54.455,140.133 54.412,139.600 54.412 C 139.270 54.412,138.730 54.587,138.400 54.800 M75.500 62.210 C 73.055 64.923,72.532 63.956,80.900 72.204 L 88.200 79.400 81.100 72.196 C 72.994 63.972,73.434 64.802,75.876 62.323 C 76.908 61.275,77.673 60.347,77.576 60.260 C 77.479 60.174,76.545 61.051,75.500 62.210 M245.633 64.152 C 246.041 64.524,250.000 66.393,250.000 66.213 C 250.000 65.988,246.180 64.000,245.747 64.000 C 245.593 64.000,245.542 64.068,245.633 64.152 M278.605 72.000 L 271.411 79.400 278.788 72.116 C 282.846 68.110,286.083 64.780,285.983 64.716 C 285.882 64.652,282.562 67.930,278.605 72.000 M105.900 67.829 C 104.405 68.640,104.496 68.978,106.000 68.200 C 106.660 67.859,107.200 67.494,107.200 67.390 C 107.200 67.132,107.157 67.147,105.900 67.829 M253.600 68.190 C 253.600 68.294,254.185 68.665,254.900 69.014 L 256.200 69.648 255.200 68.833 C 254.237 68.048,253.600 67.792,253.600 68.190 M103.100 69.429 C 101.605 70.240,101.696 70.578,103.200 69.800 C 103.860 69.459,104.400 69.094,104.400 68.990 C 104.400 68.732,104.357 68.747,103.100 69.429 M256.400 69.779 C 256.400 69.889,256.940 70.259,257.600 70.600 C 258.260 70.941,258.800 71.131,258.800 71.021 C 258.800 70.911,258.260 70.541,257.600 70.200 C 256.940 69.859,256.400 69.669,256.400 69.779 M98.800 72.033 L 97.800 72.848 99.100 72.214 C 99.815 71.865,100.400 71.494,100.400 71.390 C 100.400 70.992,99.763 71.248,98.800 72.033 M165.200 72.402 C 164.623 72.587,165.554 72.631,167.400 72.506 C 169.160 72.386,170.675 72.223,170.767 72.144 C 171.096 71.859,166.178 72.087,165.200 72.402 M188.833 72.144 C 188.925 72.223,190.440 72.383,192.200 72.498 C 194.015 72.618,194.881 72.576,194.200 72.402 C 192.988 72.091,188.525 71.877,188.833 72.144 M261.200 72.746 C 261.750 73.194,262.920 73.944,263.800 74.414 C 265.325 75.228,265.353 75.230,264.400 74.454 C 263.850 74.006,262.680 73.256,261.800 72.786 C 260.275 71.972,260.247 71.970,261.200 72.746 M35.729 73.300 C 35.284 73.795,34.776 74.470,34.601 74.800 C 34.263 75.437,34.355 75.350,35.976 73.500 C 36.506 72.895,36.849 72.400,36.739 72.400 C 36.629 72.400,36.175 72.805,35.729 73.300 M159.800 73.200 C 158.730 73.472,158.708 73.505,159.600 73.505 C 160.150 73.505,161.140 73.368,161.800 73.200 C 162.870 72.928,162.892 72.895,162.000 72.895 C 161.450 72.895,160.460 73.032,159.800 73.200 M197.600 73.200 C 198.150 73.376,199.050 73.520,199.600 73.520 L 200.600 73.520 199.600 73.200 C 199.050 73.024,198.150 72.880,197.600 72.880 L 196.600 72.880 197.600 73.200 M154.600 74.000 C 153.522 74.274,153.502 74.306,154.400 74.313 C 154.950 74.317,155.850 74.176,156.400 74.000 C 157.744 73.569,156.292 73.569,154.600 74.000 M202.800 74.000 C 203.350 74.176,204.250 74.320,204.800 74.320 L 205.800 74.320 204.800 74.000 C 204.250 73.824,203.350 73.680,202.800 73.680 L 201.800 73.680 202.800 74.000 M150.800 74.800 C 150.267 75.145,150.267 75.188,150.800 75.188 C 151.130 75.188,151.670 75.013,152.000 74.800 C 152.533 74.455,152.533 74.412,152.000 74.412 C 151.670 74.412,151.130 74.587,150.800 74.800 M207.400 74.800 C 207.840 74.989,208.470 75.144,208.800 75.144 C 209.178 75.144,209.104 75.017,208.600 74.800 C 208.160 74.611,207.530 74.456,207.200 74.456 C 206.822 74.456,206.896 74.583,207.400 74.800 M147.600 75.600 C 147.067 75.945,147.067 75.988,147.600 75.988 C 147.930 75.988,148.470 75.813,148.800 75.600 C 149.333 75.255,149.333 75.212,148.800 75.212 C 148.470 75.212,147.930 75.387,147.600 75.600 M177.075 76.322 L 176.000 77.444 176.000 87.086 L 176.000 96.729 177.282 97.807 C 178.353 98.709,178.841 98.854,180.258 98.695 C 183.383 98.342,183.384 98.337,183.520 87.383 L 183.639 77.708 182.584 76.454 C 181.129 74.725,178.662 74.666,177.075 76.322 M210.600 75.600 C 211.040 75.789,211.670 75.944,212.000 75.944 C 212.378 75.944,212.304 75.817,211.800 75.600 C 211.360 75.411,210.730 75.256,210.400 75.256 C 210.022 75.256,210.096 75.383,210.600 75.600 M213.600 76.400 C 213.930 76.613,214.470 76.788,214.800 76.788 C 215.333 76.788,215.333 76.745,214.800 76.400 C 214.470 76.187,213.930 76.012,213.600 76.012 C 213.067 76.012,213.067 76.055,213.600 76.400 M266.944 76.309 C 267.260 76.821,269.600 78.553,269.600 78.275 C 269.600 78.176,268.939 77.591,268.132 76.975 C 267.324 76.359,266.789 76.059,266.944 76.309 M90.081 77.772 C 88.429 78.940,88.168 79.200,88.648 79.200 C 88.858 79.200,89.653 78.667,90.415 78.016 C 92.072 76.600,91.908 76.480,90.081 77.772 M216.400 77.200 C 216.730 77.413,217.270 77.588,217.600 77.588 C 218.133 77.588,218.133 77.545,217.600 77.200 C 217.270 76.987,216.730 76.812,216.400 76.812 C 215.867 76.812,215.867 76.855,216.400 77.200 M219.200 78.000 C 219.530 78.213,220.070 78.388,220.400 78.388 C 220.933 78.388,220.933 78.345,220.400 78.000 C 220.070 77.787,219.530 77.612,219.200 77.612 C 218.667 77.612,218.667 77.655,219.200 78.000 M325.720 79.600 C 325.720 80.810,325.795 81.305,325.887 80.700 C 325.978 80.095,325.978 79.105,325.887 78.500 C 325.795 77.895,325.720 78.390,325.720 79.600 M224.000 79.600 C 224.330 79.813,224.870 79.988,225.200 79.988 C 225.733 79.988,225.733 79.945,225.200 79.600 C 224.870 79.387,224.330 79.212,224.000 79.212 C 223.467 79.212,223.467 79.255,224.000 79.600 M51.289 86.414 C 49.909 87.726,48.924 88.800,49.102 88.800 C 49.280 88.800,50.494 87.720,51.800 86.400 C 54.852 83.315,54.541 83.324,51.289 86.414 M61.190 90.493 L 67.776 97.186 66.195 98.893 L 64.613 100.600 66.403 98.898 L 68.193 97.196 61.398 90.498 L 54.603 83.800 61.190 90.493 M35.569 85.894 C 36.278 86.826,37.025 87.692,37.229 87.818 C 37.993 88.290,37.550 87.648,35.940 85.951 L 34.280 84.200 35.569 85.894 M119.100 86.229 C 117.605 87.040,117.696 87.378,119.200 86.600 C 119.860 86.259,120.400 85.894,120.400 85.790 C 120.400 85.532,120.357 85.547,119.100 86.229 M322.115 87.210 C 321.189 88.085,320.567 88.800,320.734 88.800 C 320.901 88.800,321.741 88.080,322.600 87.200 C 324.610 85.141,324.300 85.148,322.115 87.210 M114.700 88.629 C 113.205 89.440,113.296 89.778,114.800 89.000 C 115.460 88.659,116.000 88.294,116.000 88.190 C 116.000 87.932,115.957 87.947,114.700 88.629 M42.707 89.890 C 43.426 89.979,44.506 89.977,45.107 89.886 C 45.708 89.795,45.120 89.722,43.800 89.724 C 42.480 89.726,41.988 89.801,42.707 89.890 M111.900 90.229 C 110.405 91.040,110.496 91.378,112.000 90.600 C 112.660 90.259,113.200 89.894,113.200 89.790 C 113.200 89.532,113.157 89.547,111.900 90.229 M314.307 89.890 C 315.026 89.979,316.106 89.977,316.707 89.886 C 317.308 89.795,316.720 89.722,315.400 89.724 C 314.080 89.726,313.588 89.801,314.307 89.890 M248.804 91.301 C 249.133 91.689,256.800 96.766,256.800 96.596 C 256.800 96.379,252.137 93.130,250.200 91.997 C 249.320 91.482,248.692 91.169,248.804 91.301 M101.585 97.232 L 100.200 98.463 101.488 97.613 C 102.630 96.859,103.493 96.000,103.108 96.000 C 103.032 96.000,102.347 96.554,101.585 97.232 M257.340 97.103 C 257.496 97.356,258.191 97.967,258.884 98.460 C 259.577 98.954,260.017 99.150,259.860 98.897 C 259.704 98.644,259.009 98.033,258.316 97.540 C 257.623 97.046,257.183 96.850,257.340 97.103 M98.385 99.632 L 97.000 100.863 98.288 100.013 C 99.430 99.259,100.293 98.400,99.908 98.400 C 99.832 98.400,99.147 98.954,98.385 99.632 M294.200 100.400 C 295.059 101.280,295.852 102.000,295.962 102.000 C 296.072 102.000,295.459 101.280,294.600 100.400 C 293.741 99.520,292.948 98.800,292.838 98.800 C 292.728 98.800,293.341 99.520,294.200 100.400 M260.544 99.509 C 260.860 100.021,263.200 101.753,263.200 101.475 C 263.200 101.376,262.539 100.791,261.732 100.175 C 260.924 99.559,260.389 99.259,260.544 99.509 M63.226 102.122 L 62.251 103.400 63.526 102.225 C 64.851 101.003,65.003 100.785,64.500 100.822 C 64.335 100.834,63.762 101.419,63.226 102.122 M263.600 101.725 C 263.600 101.794,264.185 102.379,264.900 103.025 L 266.200 104.200 265.025 102.900 C 263.930 101.688,263.600 101.416,263.600 101.725 M92.800 104.060 C 90.130 106.492,80.800 115.734,80.907 115.840 C 80.958 115.891,84.124 112.888,87.941 109.166 C 94.689 102.588,96.471 100.716,92.800 104.060 M297.254 103.966 C 297.994 104.828,298.756 105.548,298.946 105.566 C 299.137 105.585,298.687 104.895,297.946 104.034 C 297.206 103.172,296.444 102.452,296.254 102.434 C 296.063 102.415,296.513 103.105,297.254 103.966 M60.760 105.100 C 59.158 106.813,58.222 108.000,58.475 108.000 C 58.570 108.000,59.502 107.010,60.547 105.800 C 62.718 103.285,62.844 102.871,60.760 105.100 M266.400 104.100 C 266.400 104.458,270.159 107.974,270.344 107.789 C 270.427 107.706,270.238 107.405,269.924 107.119 C 269.610 106.834,268.688 105.980,267.876 105.222 C 267.064 104.463,266.400 103.958,266.400 104.100 M301.559 109.000 C 302.011 109.660,302.942 110.830,303.629 111.600 C 304.709 112.813,304.768 112.840,304.067 111.800 C 303.622 111.140,302.691 109.970,301.998 109.200 C 300.910 107.992,300.850 107.965,301.559 109.000 M273.183 110.500 C 274.164 111.545,275.019 112.400,275.083 112.400 C 275.384 112.400,275.066 112.041,273.300 110.383 L 271.400 108.600 273.183 110.500 M275.600 112.995 C 275.600 113.133,277.085 114.909,278.900 116.941 C 280.715 118.972,282.798 121.347,283.529 122.217 L 284.858 123.800 283.547 122.000 C 282.826 121.010,280.968 118.761,279.418 117.002 C 275.840 112.942,275.600 112.690,275.600 112.995 M53.715 114.100 C 51.981 116.367,51.066 117.720,51.409 117.513 C 51.881 117.227,54.537 113.600,54.274 113.600 C 54.177 113.600,53.926 113.825,53.715 114.100 M307.858 117.700 C 310.337 121.358,310.752 121.881,310.001 120.400 C 309.384 119.184,306.027 114.400,305.790 114.400 C 305.697 114.400,306.628 115.885,307.858 117.700 M79.167 117.900 C 77.725 119.451,75.004 122.798,74.047 124.200 C 73.236 125.387,75.041 123.366,78.097 119.666 C 81.006 116.143,81.388 115.513,79.167 117.900 M50.308 118.900 C 49.987 119.395,49.507 120.250,49.240 120.800 C 48.560 122.203,49.794 120.706,50.641 119.100 C 51.339 117.774,51.123 117.644,50.308 118.900 M312.600 125.200 C 312.941 125.860,313.311 126.400,313.421 126.400 C 313.531 126.400,313.341 125.860,313.000 125.200 C 312.659 124.540,312.289 124.000,312.179 124.000 C 312.069 124.000,312.259 124.540,312.600 125.200 M46.200 125.600 C 45.859 126.260,45.669 126.800,45.779 126.800 C 45.889 126.800,46.259 126.260,46.600 125.600 C 46.941 124.940,47.131 124.400,47.021 124.400 C 46.911 124.400,46.541 124.940,46.200 125.600 M72.325 126.500 C 70.418 129.057,69.449 130.540,69.848 130.294 C 70.321 130.002,73.738 125.200,73.473 125.200 C 73.375 125.200,72.859 125.785,72.325 126.500 M44.600 128.400 C 44.259 129.060,44.069 129.600,44.179 129.600 C 44.289 129.600,44.659 129.060,45.000 128.400 C 45.341 127.740,45.531 127.200,45.421 127.200 C 45.311 127.200,44.941 127.740,44.600 128.400 M289.206 130.247 C 291.188 133.218,292.555 134.994,291.787 133.600 C 290.910 132.006,287.882 127.575,287.517 127.349 C 287.290 127.208,288.050 128.512,289.206 130.247 M42.600 132.000 C 42.043 133.100,41.677 134.000,41.787 134.000 C 41.897 134.000,42.443 133.100,43.000 132.000 C 43.557 130.900,43.923 130.000,43.813 130.000 C 43.703 130.000,43.157 130.900,42.600 132.000 M169.400 131.600 C 167.634 132.049,169.645 132.069,171.800 131.623 L 173.400 131.292 172.000 131.293 C 171.230 131.294,170.060 131.432,169.400 131.600 M187.800 131.623 C 188.680 131.805,189.940 131.944,190.600 131.931 C 191.644 131.911,191.592 131.865,190.200 131.577 C 189.320 131.395,188.060 131.256,187.400 131.269 C 186.356 131.289,186.408 131.335,187.800 131.623 M67.922 132.900 C 66.311 135.442,65.509 137.015,66.341 136.000 C 67.276 134.859,68.942 132.000,68.672 132.000 C 68.573 132.000,68.235 132.405,67.922 132.900 M164.600 132.400 C 163.581 132.838,164.632 132.838,166.000 132.400 C 166.804 132.143,166.843 132.077,166.200 132.068 C 165.760 132.062,165.040 132.211,164.600 132.400 M193.600 132.400 C 194.968 132.838,196.019 132.838,195.000 132.400 C 194.560 132.211,193.840 132.062,193.400 132.068 C 192.757 132.077,192.796 132.143,193.600 132.400 M196.800 133.200 C 197.130 133.413,197.670 133.588,198.000 133.588 C 198.533 133.588,198.533 133.545,198.000 133.200 C 197.670 132.987,197.130 132.812,196.800 132.812 C 196.267 132.812,196.267 132.855,196.800 133.200 M158.200 134.000 C 157.696 134.217,157.622 134.344,158.000 134.344 C 158.330 134.344,158.960 134.189,159.400 134.000 C 159.904 133.783,159.978 133.656,159.600 133.656 C 159.270 133.656,158.640 133.811,158.200 134.000 M200.200 134.000 C 200.640 134.189,201.270 134.344,201.600 134.344 C 201.978 134.344,201.904 134.217,201.400 134.000 C 200.960 133.811,200.330 133.656,200.000 133.656 C 199.622 133.656,199.696 133.783,200.200 134.000 M293.386 136.700 C 293.735 137.415,294.106 138.000,294.210 138.000 C 294.608 138.000,294.352 137.363,293.567 136.400 L 292.752 135.400 293.386 136.700 M64.600 138.400 C 64.259 139.060,64.069 139.600,64.179 139.600 C 64.289 139.600,64.659 139.060,65.000 138.400 C 65.341 137.740,65.531 137.200,65.421 137.200 C 65.311 137.200,64.941 137.740,64.600 138.400 M297.486 144.183 C 298.740 146.704,299.831 148.703,299.908 148.625 C 300.085 148.448,295.664 139.600,295.399 139.600 C 295.292 139.600,296.231 141.662,297.486 144.183 M172.000 140.400 C 169.912 140.839,172.346 140.857,174.800 140.420 L 176.600 140.100 175.000 140.103 C 174.120 140.104,172.770 140.238,172.000 140.400 M185.200 140.420 C 187.750 140.874,190.021 140.836,187.800 140.377 C 186.920 140.195,185.570 140.058,184.800 140.073 C 183.495 140.098,183.522 140.122,185.200 140.420 M215.200 140.179 C 215.200 140.289,215.740 140.659,216.400 141.000 C 217.060 141.341,217.600 141.531,217.600 141.421 C 217.600 141.311,217.060 140.941,216.400 140.600 C 215.740 140.259,215.200 140.069,215.200 140.179 M166.400 141.200 L 165.400 141.520 166.400 141.520 C 166.950 141.520,167.850 141.376,168.400 141.200 L 169.400 140.880 168.400 140.880 C 167.850 140.880,166.950 141.024,166.400 141.200 M191.600 141.200 C 192.150 141.376,192.960 141.520,193.400 141.520 C 194.033 141.520,193.992 141.454,193.200 141.200 C 192.650 141.024,191.840 140.880,191.400 140.880 C 190.767 140.880,190.808 140.946,191.600 141.200 M138.300 143.824 C 136.595 145.034,135.200 146.117,135.200 146.232 C 135.200 146.454,140.200 143.030,141.186 142.133 C 142.344 141.079,141.346 141.664,138.300 143.824 M195.600 142.000 C 195.930 142.213,196.470 142.388,196.800 142.388 C 197.333 142.388,197.333 142.345,196.800 142.000 C 196.470 141.787,195.930 141.612,195.600 141.612 C 195.067 141.612,195.067 141.655,195.600 142.000 M160.400 142.800 C 159.867 143.145,159.867 143.188,160.400 143.188 C 160.730 143.188,161.270 143.013,161.600 142.800 C 162.133 142.455,162.133 142.412,161.600 142.412 C 161.270 142.412,160.730 142.587,160.400 142.800 M221.600 144.125 C 221.600 144.224,222.261 144.809,223.068 145.425 C 223.876 146.041,224.411 146.341,224.256 146.091 C 223.940 145.579,221.600 143.847,221.600 144.125 M210.000 147.379 C 210.000 147.489,210.540 147.859,211.200 148.200 C 211.860 148.541,212.400 148.731,212.400 148.621 C 212.400 148.511,211.860 148.141,211.200 147.800 C 210.540 147.459,210.000 147.269,210.000 147.379 M131.454 149.055 C 130.823 149.597,130.373 150.106,130.454 150.186 C 130.534 150.266,131.116 149.888,131.746 149.345 C 132.377 148.803,132.827 148.294,132.746 148.214 C 132.666 148.134,132.084 148.512,131.454 149.055 M144.737 150.329 C 139.687 153.775,136.861 156.053,134.394 158.664 C 130.199 163.107,129.815 163.803,133.800 159.744 C 137.824 155.644,140.156 153.743,145.500 150.203 C 148.076 148.497,148.702 148.000,148.275 148.000 C 148.206 148.000,146.614 149.048,144.737 150.329 M229.088 150.256 C 230.456 151.545,232.769 153.860,234.228 155.400 L 236.880 158.200 234.179 155.087 C 232.694 153.375,230.381 151.060,229.039 149.943 L 226.600 147.912 229.088 150.256 M128.000 152.200 C 127.028 153.190,126.323 154.000,126.433 154.000 C 126.543 154.000,127.428 153.190,128.400 152.200 C 129.372 151.210,130.077 150.400,129.967 150.400 C 129.857 150.400,128.972 151.210,128.000 152.200 M124.454 156.034 C 123.713 156.895,123.263 157.585,123.454 157.566 C 123.644 157.548,124.406 156.828,125.146 155.966 C 125.887 155.105,126.337 154.415,126.146 154.434 C 125.956 154.452,125.194 155.172,124.454 156.034 M222.576 156.312 C 223.663 157.450,224.626 158.308,224.716 158.217 C 224.896 158.038,222.650 155.744,221.390 154.821 C 220.956 154.503,221.489 155.173,222.576 156.312 M237.591 159.588 C 238.057 160.241,238.642 160.902,238.891 161.056 C 239.141 161.211,238.841 160.676,238.225 159.868 C 236.888 158.115,236.384 157.892,237.591 159.588 M228.078 162.000 C 229.025 163.100,229.928 164.000,230.084 164.000 C 230.240 164.000,229.657 163.235,228.789 162.300 C 227.921 161.365,227.208 160.465,227.205 160.300 C 227.202 160.135,227.010 160.000,226.778 160.000 C 226.546 160.000,227.131 160.900,228.078 162.000 M328.056 160.400 C 328.056 160.730,328.211 161.360,328.400 161.800 C 328.617 162.304,328.744 162.378,328.744 162.000 C 328.744 161.670,328.589 161.040,328.400 160.600 C 328.183 160.096,328.056 160.022,328.056 160.400 M119.629 162.254 C 118.714 163.418,118.578 164.000,119.224 164.000 C 119.457 164.000,119.549 163.841,119.429 163.647 C 119.309 163.453,119.582 162.823,120.034 162.247 C 120.487 161.671,120.768 161.200,120.658 161.200 C 120.548 161.200,120.085 161.674,119.629 162.254 M239.855 162.600 C 240.780 164.179,240.800 164.203,240.800 163.711 C 240.800 163.479,240.429 162.864,239.976 162.344 L 239.153 161.400 239.855 162.600 M29.029 167.829 C 28.881 168.415,28.851 168.984,28.961 169.094 C 29.071 169.204,29.281 168.815,29.429 168.229 C 29.576 167.642,29.606 167.073,29.496 166.963 C 29.386 166.853,29.176 167.242,29.029 167.829 M28.229 171.429 C 28.081 172.015,28.038 172.572,28.132 172.666 C 28.227 172.760,28.424 172.358,28.571 171.771 C 28.719 171.185,28.762 170.628,28.668 170.534 C 28.573 170.440,28.376 170.842,28.229 171.429 M50.629 173.829 C 50.481 174.415,50.438 174.972,50.532 175.066 C 50.627 175.160,50.824 174.758,50.971 174.171 C 51.119 173.585,51.162 173.028,51.068 172.934 C 50.973 172.840,50.776 173.242,50.629 173.829 M27.422 175.422 C 27.272 176.225,27.228 176.962,27.326 177.060 C 27.424 177.157,27.627 176.581,27.778 175.778 C 27.928 174.975,27.972 174.238,27.874 174.140 C 27.776 174.043,27.573 174.619,27.422 175.422 M49.849 177.015 C 49.712 177.373,49.616 178.056,49.636 178.533 C 49.662 179.147,49.785 179.008,50.059 178.056 C 50.457 176.672,50.294 175.858,49.849 177.015 M60.467 178.134 C 56.539 179.584,56.728 184.636,60.760 185.955 C 61.508 186.200,64.424 186.400,67.240 186.400 L 72.361 186.400 72.480 203.791 L 72.600 221.183 73.642 222.225 C 74.469 223.051,75.073 223.267,76.561 223.267 C 80.742 223.267,80.800 222.990,80.800 203.042 L 80.800 186.459 86.500 186.330 C 93.236 186.176,94.317 185.808,95.159 183.380 C 95.843 181.407,95.040 179.259,93.281 178.355 C 91.786 177.587,62.485 177.390,60.467 178.134 M101.458 178.336 C 100.832 179.028,100.797 179.404,101.173 181.435 C 101.437 182.863,101.600 190.883,101.600 202.419 L 101.600 221.091 102.655 222.145 C 104.293 223.783,106.891 223.707,108.500 221.973 C 109.562 220.829,109.600 220.634,109.600 216.381 C 109.600 213.205,109.740 211.932,110.100 211.820 C 110.375 211.735,112.901 211.572,115.713 211.457 L 120.827 211.248 122.946 214.524 C 124.111 216.326,125.644 218.730,126.353 219.868 C 128.893 223.943,132.849 224.586,134.596 221.208 C 135.691 219.090,134.812 217.277,129.099 209.875 L 127.923 208.351 129.567 206.739 C 132.688 203.680,134.061 201.136,134.769 197.100 C 136.099 189.522,130.879 181.457,122.800 178.609 C 119.358 177.395,102.504 177.180,101.458 178.336 M227.835 178.362 C 227.235 179.024,227.201 179.424,227.573 181.435 C 227.837 182.863,228.000 190.883,228.000 202.419 L 228.000 221.091 229.010 222.101 C 230.879 223.970,233.656 223.759,235.085 221.640 C 235.948 220.360,236.001 219.889,236.019 213.441 L 236.038 206.600 239.236 204.000 C 243.318 200.681,243.515 200.657,245.046 203.284 C 245.723 204.448,247.228 206.930,248.389 208.800 C 249.550 210.670,251.168 213.280,251.984 214.600 C 252.801 215.920,254.083 217.990,254.834 219.199 C 257.755 223.901,260.282 224.809,262.971 222.120 C 265.171 219.920,264.682 218.703,256.733 206.600 C 251.787 199.070,250.000 196.194,250.000 195.765 C 250.000 195.557,252.889 193.067,256.421 190.233 C 262.606 185.269,264.000 183.761,264.000 182.039 C 264.000 179.174,260.457 177.104,257.874 178.458 C 257.181 178.821,249.632 185.086,248.800 185.988 C 248.690 186.107,247.430 187.193,246.000 188.400 C 244.570 189.607,243.310 190.691,243.200 190.808 C 243.090 190.925,241.834 192.006,240.410 193.210 C 238.985 194.415,237.577 195.625,237.281 195.900 C 236.126 196.973,236.000 196.253,236.000 188.586 C 236.000 182.005,235.896 180.613,235.341 179.767 C 233.994 177.711,229.231 176.819,227.835 178.362 M271.175 178.100 C 270.680 178.528,270.626 181.649,270.799 199.891 L 271.000 221.183 272.064 222.246 C 272.851 223.033,273.532 223.309,274.688 223.309 C 278.201 223.309,279.200 221.605,279.200 215.613 L 279.200 211.600 282.341 211.600 C 284.069 211.600,286.544 211.498,287.841 211.373 L 290.200 211.145 293.738 216.545 C 297.968 223.001,298.275 223.309,300.465 223.309 C 304.912 223.309,305.396 216.876,301.196 213.600 C 301.055 213.490,300.169 212.256,299.226 210.858 L 297.513 208.316 299.282 206.458 C 308.755 196.507,304.200 181.726,290.566 178.174 C 287.627 177.409,272.043 177.349,271.175 178.100 M311.175 178.100 C 310.680 178.528,310.626 181.649,310.799 199.891 L 311.000 221.183 312.064 222.246 C 312.851 223.033,313.532 223.309,314.688 223.309 C 318.201 223.309,319.200 221.605,319.200 215.613 L 319.200 211.600 322.341 211.600 C 324.069 211.600,326.544 211.498,327.841 211.373 L 330.200 211.145 333.738 216.545 C 337.968 223.001,338.275 223.309,340.465 223.309 C 344.912 223.309,345.396 216.876,341.196 213.600 C 341.055 213.490,340.169 212.256,339.226 210.858 L 337.513 208.316 339.282 206.458 C 348.755 196.507,344.200 181.726,330.566 178.174 C 327.627 177.409,312.043 177.349,311.175 178.100 M351.058 178.336 C 350.432 179.028,350.397 179.404,350.773 181.435 C 351.037 182.863,351.200 190.883,351.200 202.419 L 351.200 221.091 352.255 222.145 C 353.893 223.783,356.491 223.707,358.100 221.973 C 359.162 220.829,359.200 220.634,359.200 216.381 C 359.200 213.205,359.340 211.932,359.700 211.820 C 359.975 211.735,362.501 211.572,365.313 211.457 L 370.427 211.248 372.546 214.524 C 373.711 216.326,375.244 218.730,375.953 219.868 C 378.493 223.943,382.449 224.586,384.196 221.208 C 385.291 219.090,384.412 217.277,378.699 209.875 L 377.523 208.351 379.167 206.739 C 382.288 203.680,383.661 201.136,384.369 197.100 C 385.699 189.522,380.479 181.457,372.400 178.609 C 368.958 177.395,352.104 177.180,351.058 178.336 M153.782 178.982 C 153.242 179.522,152.800 180.287,152.801 180.682 C 152.801 181.284,139.999 213.982,138.703 216.688 C 137.109 220.016,138.906 223.400,142.266 223.400 C 144.576 223.400,145.549 222.326,147.381 217.757 L 148.646 214.600 157.023 214.495 L 165.400 214.389 166.722 217.763 C 167.450 219.618,168.509 221.600,169.077 222.168 C 171.494 224.585,175.999 222.931,176.000 219.625 C 176.001 217.991,162.079 182.752,160.448 180.260 C 158.820 177.772,155.608 177.156,153.782 178.982 M198.600 178.288 C 190.537 179.414,182.756 186.658,180.562 195.080 C 175.082 216.122,201.446 232.721,217.192 218.143 C 221.158 214.472,221.659 212.779,219.440 210.560 C 217.247 208.367,215.902 208.605,211.554 211.950 C 197.353 222.877,180.223 204.206,192.213 190.870 C 193.771 189.137,195.367 188.120,198.519 186.851 C 200.000 186.254,204.975 186.275,206.772 186.885 C 208.091 187.333,210.148 188.589,213.559 191.028 C 216.432 193.082,220.000 191.368,220.000 187.932 C 220.000 182.192,208.323 176.929,198.600 178.288 M26.669 179.556 C 26.521 180.295,26.420 181.283,26.444 181.750 C 26.468 182.218,26.647 181.790,26.842 180.800 C 27.037 179.810,27.138 178.823,27.067 178.606 C 26.996 178.390,26.817 178.817,26.669 179.556 M49.000 181.600 C 48.848 182.291,48.814 182.947,48.924 183.057 C 49.034 183.167,49.248 182.691,49.400 182.000 C 49.552 181.309,49.586 180.653,49.476 180.543 C 49.366 180.433,49.152 180.909,49.000 181.600 M25.869 185.556 C 25.721 186.295,25.620 187.283,25.644 187.750 C 25.668 188.218,25.847 187.790,26.042 186.800 C 26.237 185.810,26.338 184.823,26.267 184.606 C 26.196 184.390,26.017 184.817,25.869 185.556 M48.233 186.833 C 48.083 187.966,48.041 188.974,48.139 189.072 C 48.237 189.171,48.445 188.328,48.600 187.200 C 48.755 186.072,48.798 185.064,48.694 184.961 C 48.591 184.858,48.384 185.700,48.233 186.833 M119.371 185.583 C 126.335 187.198,129.154 196.764,124.061 201.496 C 121.742 203.651,120.244 204.081,114.833 204.142 L 109.800 204.200 109.693 194.700 L 109.586 185.200 113.693 185.210 C 115.952 185.215,118.507 185.383,119.371 185.583 M290.572 186.118 C 297.991 190.180,297.923 200.315,290.455 203.435 C 288.455 204.271,280.243 204.700,279.414 204.011 C 278.771 203.478,278.459 187.355,279.060 185.787 C 279.419 184.853,288.750 185.121,290.572 186.118 M330.572 186.118 C 337.991 190.180,337.923 200.315,330.455 203.435 C 328.455 204.271,320.243 204.700,319.414 204.011 C 318.771 203.478,318.459 187.355,319.060 185.787 C 319.419 184.853,328.750 185.121,330.572 186.118 M368.971 185.583 C 375.935 187.198,378.754 196.764,373.661 201.496 C 371.342 203.651,369.844 204.081,364.433 204.142 L 359.400 204.200 359.293 194.700 L 359.186 185.200 363.293 185.210 C 365.552 185.215,368.107 185.383,368.971 185.583 M47.459 194.660 C 47.140 198.427,47.194 210.936,47.543 214.200 C 47.685 215.520,47.800 210.975,47.800 204.100 C 47.800 197.225,47.781 191.600,47.759 191.600 C 47.736 191.600,47.601 192.977,47.459 194.660 M25.059 195.060 C 24.744 198.786,24.799 210.825,25.147 214.400 C 25.286 215.830,25.400 211.375,25.400 204.500 C 25.400 197.625,25.381 192.000,25.359 192.000 C 25.336 192.000,25.201 193.377,25.059 195.060 M157.855 193.100 C 161.008 200.803,163.220 206.844,163.012 207.181 C 162.851 207.442,160.570 207.600,156.976 207.600 L 151.200 207.600 151.200 206.595 C 151.200 206.042,151.359 205.277,151.553 204.895 C 152.022 203.974,152.410 203.015,154.425 197.800 C 156.946 191.277,157.050 191.135,157.855 193.100 M48.070 219.800 C 48.057 220.240,48.195 221.320,48.377 222.200 C 48.655 223.545,48.708 223.609,48.707 222.600 C 48.705 221.199,48.108 218.570,48.070 219.800 M25.693 221.000 C 25.694 221.660,25.832 222.740,26.000 223.400 C 26.423 225.063,26.442 223.426,26.023 221.400 C 25.745 220.055,25.692 219.991,25.693 221.000 M48.868 225.600 C 48.862 226.150,49.011 226.960,49.200 227.400 L 49.544 228.200 49.532 227.400 C 49.526 226.960,49.376 226.150,49.200 225.600 L 48.880 224.600 48.868 225.600 M26.480 227.200 C 26.480 227.750,26.624 228.650,26.800 229.200 L 27.120 230.200 27.120 229.200 C 27.120 228.650,26.976 227.750,26.800 227.200 L 26.480 226.200 26.480 227.200 M49.656 230.000 C 49.656 230.330,49.811 230.960,50.000 231.400 C 50.217 231.904,50.344 231.978,50.344 231.600 C 50.344 231.270,50.189 230.640,50.000 230.200 C 49.783 229.696,49.656 229.622,49.656 230.000 M27.280 231.800 C 27.280 232.240,27.424 233.050,27.600 233.600 C 27.854 234.392,27.920 234.433,27.920 233.800 C 27.920 233.360,27.776 232.550,27.600 232.000 C 27.346 231.208,27.280 231.167,27.280 231.800 M50.456 233.600 C 50.456 233.930,50.611 234.560,50.800 235.000 C 51.017 235.504,51.144 235.578,51.144 235.200 C 51.144 234.870,50.989 234.240,50.800 233.800 C 50.583 233.296,50.456 233.222,50.456 233.600 M28.056 236.000 C 28.056 236.330,28.211 236.960,28.400 237.400 C 28.617 237.904,28.744 237.978,28.744 237.600 C 28.744 237.270,28.589 236.640,28.400 236.200 C 28.183 235.696,28.056 235.622,28.056 236.000 M114.032 236.300 C 114.050 236.718,114.144 236.799,114.265 236.500 C 114.659 235.523,123.478 235.825,124.018 236.834 C 124.264 237.293,124.569 237.564,124.697 237.437 C 124.824 237.309,124.602 236.844,124.202 236.402 C 123.164 235.255,113.980 235.162,114.032 236.300 M240.543 235.899 C 245.034 236.019,245.276 236.068,245.081 236.814 C 244.967 237.247,245.038 237.500,245.237 237.377 C 245.437 237.254,245.600 236.803,245.600 236.376 C 245.600 235.645,245.313 235.605,240.700 235.686 L 235.800 235.772 240.543 235.899 M308.262 235.900 C 308.160 236.065,313.279 236.200,319.638 236.200 C 325.997 236.200,331.200 236.065,331.200 235.900 C 331.200 235.735,326.081 235.600,319.824 235.600 C 313.567 235.600,308.364 235.735,308.262 235.900 M51.212 237.200 C 51.212 237.530,51.387 238.070,51.600 238.400 C 51.945 238.933,51.988 238.933,51.988 238.400 C 51.988 238.070,51.813 237.530,51.600 237.200 C 51.255 236.667,51.212 236.667,51.212 237.200 M330.629 237.829 C 330.481 238.415,330.438 238.972,330.532 239.066 C 330.627 239.160,330.824 238.758,330.971 238.171 C 331.119 237.585,331.162 237.028,331.068 236.934 C 330.973 236.840,330.776 237.242,330.629 237.829 M233.055 240.500 C 232.018 242.095,231.671 242.809,232.284 242.086 C 233.365 240.814,235.369 237.600,235.083 237.600 C 235.005 237.600,234.092 238.905,233.055 240.500 M115.800 240.000 C 116.141 240.660,116.511 241.200,116.621 241.200 C 116.731 241.200,116.541 240.660,116.200 240.000 C 115.859 239.340,115.489 238.800,115.379 238.800 C 115.269 238.800,115.459 239.340,115.800 240.000 M28.834 239.600 C 28.846 239.930,29.011 240.560,29.200 241.000 L 29.544 241.800 29.566 241.000 C 29.578 240.560,29.413 239.930,29.200 239.600 C 28.855 239.067,28.815 239.067,28.834 239.600 M52.012 240.000 C 52.012 240.330,52.187 240.870,52.400 241.200 C 52.745 241.733,52.788 241.733,52.788 241.200 C 52.788 240.870,52.613 240.330,52.400 240.000 C 52.055 239.467,52.012 239.467,52.012 240.000 M243.000 240.800 C 242.659 241.460,242.469 242.000,242.579 242.000 C 242.689 242.000,243.059 241.460,243.400 240.800 C 243.741 240.140,243.931 239.600,243.821 239.600 C 243.711 239.600,243.341 240.140,243.000 240.800 M329.829 241.029 C 329.681 241.615,329.638 242.172,329.732 242.266 C 329.827 242.360,330.024 241.958,330.171 241.371 C 330.319 240.785,330.362 240.228,330.268 240.134 C 330.173 240.040,329.976 240.442,329.829 241.029 M117.622 243.110 C 118.137 244.051,119.071 245.401,119.697 246.110 C 120.497 247.017,120.335 246.627,119.150 244.800 C 117.079 241.606,116.368 240.820,117.622 243.110 M127.991 242.788 C 128.457 243.441,129.042 244.102,129.291 244.256 C 129.541 244.411,129.241 243.876,128.625 243.068 C 127.288 241.315,126.784 241.092,127.991 242.788 M329.029 244.229 C 328.881 244.815,328.838 245.372,328.932 245.466 C 329.027 245.560,329.224 245.158,329.371 244.571 C 329.519 243.985,329.562 243.428,329.468 243.334 C 329.373 243.240,329.176 243.642,329.029 244.229 M228.322 246.700 C 226.889 248.405,224.798 250.520,223.674 251.400 C 222.551 252.280,221.625 253.147,221.616 253.327 C 221.588 253.901,226.349 249.548,228.284 247.231 C 229.309 246.004,230.412 244.685,230.736 244.300 C 231.059 243.915,231.235 243.600,231.126 243.600 C 231.017 243.600,229.755 244.995,228.322 246.700 M240.185 245.300 C 239.551 246.261,239.366 246.752,239.758 246.429 C 240.418 245.887,241.796 243.600,241.463 243.600 C 241.377 243.600,240.802 244.365,240.185 245.300 M133.600 249.400 C 135.017 250.830,136.267 252.000,136.377 252.000 C 136.487 252.000,135.417 250.830,134.000 249.400 C 132.583 247.970,131.333 246.800,131.223 246.800 C 131.113 246.800,132.183 247.970,133.600 249.400 M237.775 248.668 C 237.159 249.476,236.859 250.011,237.109 249.856 C 237.621 249.540,239.353 247.200,239.075 247.200 C 238.976 247.200,238.391 247.861,237.775 248.668 M31.256 248.400 C 31.256 248.730,31.411 249.360,31.600 249.800 C 31.817 250.304,31.944 250.378,31.944 250.000 C 31.944 249.670,31.789 249.040,31.600 248.600 C 31.383 248.096,31.256 248.022,31.256 248.400 M236.000 250.721 C 236.000 250.897,234.435 252.742,232.523 254.821 C 230.611 256.899,229.727 257.970,230.559 257.200 C 232.977 254.962,236.924 250.400,236.441 250.400 C 236.199 250.400,236.000 250.544,236.000 250.721 M124.600 252.400 C 125.459 253.280,126.252 254.000,126.362 254.000 C 126.472 254.000,125.859 253.280,125.000 252.400 C 124.141 251.520,123.348 250.800,123.238 250.800 C 123.128 250.800,123.741 251.520,124.600 252.400 M136.822 252.270 C 136.834 252.451,137.374 253.019,138.022 253.530 C 138.670 254.042,139.190 254.312,139.178 254.130 C 139.166 253.949,138.626 253.381,137.978 252.870 C 137.330 252.358,136.810 252.088,136.822 252.270 M219.200 255.249 C 218.119 256.226,217.879 256.558,218.600 256.081 C 219.706 255.349,221.537 253.584,221.162 253.612 C 221.073 253.619,220.190 254.355,219.200 255.249 M128.191 256.391 C 129.269 257.486,130.221 258.312,130.307 258.227 C 130.482 258.051,126.808 254.400,126.457 254.400 C 126.332 254.400,127.112 255.296,128.191 256.391 M143.489 257.630 C 143.978 258.139,144.478 258.455,144.601 258.332 C 144.724 258.209,144.324 257.792,143.712 257.406 L 142.600 256.704 143.489 257.630 M213.500 259.029 C 212.895 259.357,212.400 259.710,212.400 259.813 C 212.400 260.199,213.032 259.957,214.000 259.200 C 215.189 258.270,215.011 258.209,213.500 259.029 M226.118 260.556 C 222.005 263.993,222.313 264.041,226.600 260.630 C 227.700 259.755,228.675 258.985,228.767 258.919 C 228.858 258.854,228.858 258.728,228.767 258.641 C 228.675 258.554,227.483 259.415,226.118 260.556 M132.816 260.273 C 132.831 260.599,136.400 263.374,136.400 263.061 C 136.400 262.970,135.590 262.233,134.600 261.421 C 133.610 260.610,132.807 260.093,132.816 260.273 M149.200 260.998 C 149.200 261.267,153.249 263.284,153.429 263.105 C 153.511 263.023,152.593 262.473,151.389 261.882 C 150.185 261.292,149.200 260.894,149.200 260.998 M156.000 264.400 C 156.330 264.613,156.870 264.788,157.200 264.788 C 157.733 264.788,157.733 264.745,157.200 264.400 C 156.870 264.187,156.330 264.012,156.000 264.012 C 155.467 264.012,155.467 264.055,156.000 264.400 M219.487 265.368 C 217.126 267.002,216.564 267.575,218.306 266.572 C 219.650 265.799,221.956 264.023,221.600 264.036 C 221.490 264.041,220.539 264.640,219.487 265.368 M163.400 266.800 C 163.840 266.989,164.470 267.144,164.800 267.144 C 165.178 267.144,165.104 267.017,164.600 266.800 C 164.160 266.611,163.530 266.456,163.200 266.456 C 162.822 266.456,162.896 266.583,163.400 266.800 M195.400 266.800 C 194.896 267.017,194.822 267.144,195.200 267.144 C 195.530 267.144,196.160 266.989,196.600 266.800 C 197.104 266.583,197.178 266.456,196.800 266.456 C 196.470 266.456,195.840 266.611,195.400 266.800 M295.800 267.600 C 295.459 268.260,295.269 268.800,295.379 268.800 C 295.489 268.800,295.859 268.260,296.200 267.600 C 296.541 266.940,296.731 266.400,296.621 266.400 C 296.511 266.400,296.141 266.940,295.800 267.600 M167.200 267.600 C 167.750 267.776,168.560 267.920,169.000 267.920 C 169.633 267.920,169.592 267.854,168.800 267.600 C 168.250 267.424,167.440 267.280,167.000 267.280 C 166.367 267.280,166.408 267.346,167.200 267.600 M191.200 267.600 C 190.396 267.857,190.357 267.923,191.000 267.932 C 191.440 267.938,192.160 267.789,192.600 267.600 C 193.619 267.162,192.568 267.162,191.200 267.600 M172.200 268.400 C 172.860 268.568,173.940 268.706,174.600 268.707 C 175.609 268.708,175.545 268.655,174.200 268.377 C 172.174 267.958,170.537 267.977,172.200 268.400 M185.400 268.400 L 184.200 268.705 185.400 268.705 C 186.060 268.705,187.140 268.568,187.800 268.400 L 189.000 268.095 187.800 268.095 C 187.140 268.095,186.060 268.232,185.400 268.400 M64.600 270.000 C 64.941 270.660,65.311 271.200,65.421 271.200 C 65.531 271.200,65.341 270.660,65.000 270.000 C 64.659 269.340,64.289 268.800,64.179 268.800 C 64.069 268.800,64.259 269.340,64.600 270.000 M293.386 271.700 L 292.752 273.000 293.567 272.000 C 294.352 271.037,294.608 270.400,294.210 270.400 C 294.106 270.400,293.735 270.985,293.386 271.700 M66.413 272.909 C 66.398 273.259,68.423 276.400,68.663 276.400 C 68.885 276.400,67.782 274.356,67.043 273.400 C 66.703 272.960,66.420 272.739,66.413 272.909 M160.200 274.800 C 160.640 274.989,161.270 275.144,161.600 275.144 C 161.978 275.144,161.904 275.017,161.400 274.800 C 160.960 274.611,160.330 274.456,160.000 274.456 C 159.622 274.456,159.696 274.583,160.200 274.800 M198.200 274.800 C 197.696 275.017,197.622 275.144,198.000 275.144 C 198.330 275.144,198.960 274.989,199.400 274.800 C 199.904 274.583,199.978 274.456,199.600 274.456 C 199.270 274.456,198.640 274.611,198.200 274.800 M289.035 278.500 C 287.814 280.380,287.575 280.907,288.354 280.000 C 289.535 278.624,291.411 275.600,291.084 275.600 C 290.992 275.600,290.070 276.905,289.035 278.500 M43.000 277.200 C 43.341 277.860,43.711 278.400,43.821 278.400 C 43.931 278.400,43.741 277.860,43.400 277.200 C 43.059 276.540,42.689 276.000,42.579 276.000 C 42.469 276.000,42.659 276.540,43.000 277.200 M166.600 276.400 C 167.040 276.589,167.940 276.735,168.600 276.725 L 169.800 276.705 168.600 276.400 C 167.940 276.232,167.040 276.086,166.600 276.075 L 165.800 276.056 166.600 276.400 M191.000 276.400 L 189.800 276.705 191.000 276.713 C 191.660 276.717,192.650 276.576,193.200 276.400 L 194.200 276.080 193.200 276.087 C 192.650 276.091,191.660 276.232,191.000 276.400 M173.800 277.265 C 174.900 277.411,177.600 277.530,179.800 277.530 C 182.000 277.530,184.700 277.411,185.800 277.265 C 186.900 277.119,184.200 277.000,179.800 277.000 C 175.400 277.000,172.700 277.119,173.800 277.265 M44.600 280.000 C 44.941 280.660,45.311 281.200,45.421 281.200 C 45.531 281.200,45.341 280.660,45.000 280.000 C 44.659 279.340,44.289 278.800,44.179 278.800 C 44.069 278.800,44.259 279.340,44.600 280.000 M71.616 280.963 C 73.395 283.440,74.106 283.879,72.457 281.482 C 71.760 280.469,70.978 279.510,70.720 279.350 C 70.461 279.191,70.865 279.916,71.616 280.963 M314.200 280.400 C 313.859 281.060,313.669 281.600,313.779 281.600 C 313.889 281.600,314.259 281.060,314.600 280.400 C 314.941 279.740,315.131 279.200,315.021 279.200 C 314.911 279.200,314.541 279.740,314.200 280.400 M46.200 282.800 C 46.541 283.460,46.911 284.000,47.021 284.000 C 47.131 284.000,46.941 283.460,46.600 282.800 C 46.259 282.140,45.889 281.600,45.779 281.600 C 45.669 281.600,45.859 282.140,46.200 282.800 M285.775 283.068 C 285.159 283.876,284.859 284.411,285.109 284.256 C 285.621 283.940,287.353 281.600,287.075 281.600 C 286.976 281.600,286.391 282.261,285.775 283.068 M312.600 283.200 C 312.259 283.860,312.069 284.400,312.179 284.400 C 312.289 284.400,312.659 283.860,313.000 283.200 C 313.341 282.540,313.531 282.000,313.421 282.000 C 313.311 282.000,312.941 282.540,312.600 283.200 M282.216 287.700 C 280.547 289.829,280.387 290.121,281.615 288.800 C 283.367 286.914,284.983 284.800,284.672 284.800 C 284.572 284.800,283.467 286.105,282.216 287.700 M75.902 286.600 C 76.359 287.260,77.661 288.790,78.795 290.000 C 80.630 291.958,80.584 291.871,78.378 289.200 C 75.501 285.718,74.732 284.911,75.902 286.600 M49.324 287.800 C 49.662 288.460,50.238 289.360,50.604 289.800 C 50.970 290.240,50.865 289.880,50.370 289.000 C 49.280 287.058,48.464 286.122,49.324 287.800 M307.857 290.636 C 306.594 292.525,305.751 293.954,305.983 293.811 C 306.697 293.369,310.717 287.200,310.290 287.200 C 310.214 287.200,309.119 288.746,307.857 290.636 M52.343 292.518 C 53.040 293.531,53.816 294.486,54.067 294.641 C 54.318 294.797,53.953 294.095,53.257 293.082 C 52.560 292.069,51.784 291.114,51.533 290.959 C 51.282 290.803,51.647 291.505,52.343 292.518 M277.785 292.900 L 275.800 295.000 277.900 293.015 C 279.055 291.923,280.000 290.978,280.000 290.915 C 280.000 290.617,279.629 290.949,277.785 292.900 M85.994 297.700 C 88.961 300.725,91.436 303.200,91.494 303.200 C 91.781 303.200,91.209 302.606,86.100 297.594 L 80.600 292.200 85.994 297.700 M273.298 297.495 C 270.465 300.508,270.852 300.579,273.810 297.590 C 275.111 296.275,276.001 295.214,275.787 295.230 C 275.574 295.247,274.454 296.266,273.298 297.495 M302.600 298.000 C 301.584 299.320,300.843 300.400,300.953 300.400 C 301.063 300.400,301.984 299.320,303.000 298.000 C 304.016 296.680,304.757 295.600,304.647 295.600 C 304.537 295.600,303.616 296.680,302.600 298.000 M268.187 302.500 L 265.800 305.000 268.300 302.613 C 269.675 301.299,270.800 300.174,270.800 300.113 C 270.800 299.817,270.405 300.178,268.187 302.500 M59.049 301.225 C 60.388 303.053,62.029 304.904,62.175 304.750 C 62.254 304.668,61.413 303.610,60.308 302.400 C 59.203 301.190,58.637 300.661,59.049 301.225 M300.000 301.120 C 300.000 301.296,299.061 302.511,297.914 303.820 C 296.767 305.129,296.247 305.840,296.759 305.400 C 298.274 304.097,300.911 300.800,300.437 300.800 C 300.197 300.800,300.000 300.944,300.000 301.120 M92.023 303.490 C 92.045 303.794,96.131 307.257,97.769 308.359 C 98.512 308.859,98.537 308.854,98.000 308.309 C 96.692 306.980,92.001 303.198,92.023 303.490 M263.600 306.454 L 261.800 308.085 263.494 306.813 C 264.968 305.707,265.914 304.774,265.524 304.812 C 265.456 304.819,264.590 305.558,263.600 306.454 M62.400 305.325 C 62.400 305.394,62.985 305.979,63.700 306.625 L 65.000 307.800 63.825 306.500 C 62.730 305.288,62.400 305.016,62.400 305.325 M293.643 308.441 C 292.677 309.518,292.015 310.400,292.172 310.400 C 292.329 310.400,292.669 310.164,292.929 309.876 C 293.188 309.588,294.020 308.688,294.778 307.876 C 295.537 307.064,295.987 306.418,295.778 306.441 C 295.570 306.463,294.610 307.363,293.643 308.441 M67.231 310.700 C 70.265 313.889,78.404 321.507,80.400 323.027 C 81.170 323.613,80.630 323.048,79.200 321.772 C 77.770 320.496,73.997 316.875,70.815 313.726 C 64.701 307.674,62.931 306.179,67.231 310.700 M259.985 309.232 L 258.600 310.463 259.888 309.613 C 261.030 308.859,261.893 308.000,261.508 308.000 C 261.432 308.000,260.747 308.554,259.985 309.232 M98.944 309.109 C 99.260 309.621,101.600 311.353,101.600 311.075 C 101.600 310.976,100.939 310.391,100.132 309.775 C 99.324 309.159,98.789 308.859,98.944 309.109 M177.055 310.655 L 176.000 311.709 176.000 321.385 C 176.000 332.723,176.026 332.800,179.897 332.800 C 183.573 332.800,183.662 332.508,183.519 320.885 C 183.401 311.180,183.395 311.124,182.456 310.364 C 181.007 309.192,178.375 309.334,177.055 310.655 M256.785 311.632 L 255.400 312.863 256.688 312.013 C 257.830 311.259,258.693 310.400,258.308 310.400 C 258.232 310.400,257.547 310.954,256.785 311.632 M287.992 314.700 L 284.200 318.600 288.100 314.808 C 290.245 312.722,292.000 310.967,292.000 310.908 C 292.000 310.618,291.514 311.078,287.992 314.700 M102.150 311.520 C 102.310 311.778,103.269 312.560,104.282 313.257 C 106.679 314.906,106.240 314.195,103.763 312.416 C 102.716 311.665,101.991 311.261,102.150 311.520 M107.166 315.082 C 107.697 315.477,108.867 316.213,109.766 316.718 C 110.665 317.222,110.965 317.312,110.434 316.918 C 109.903 316.523,108.733 315.787,107.834 315.282 C 106.935 314.778,106.635 314.688,107.166 315.082 M247.900 317.429 C 246.405 318.240,246.496 318.578,248.000 317.800 C 248.660 317.459,249.200 317.094,249.200 316.990 C 249.200 316.732,249.157 316.747,247.900 317.429 M245.100 319.029 C 243.605 319.840,243.696 320.178,245.200 319.400 C 245.860 319.059,246.400 318.694,246.400 318.590 C 246.400 318.332,246.357 318.347,245.100 319.029 M281.200 320.881 L 278.600 323.291 281.200 321.163 C 282.630 319.992,283.875 318.982,283.967 318.917 C 284.058 318.853,284.058 318.726,283.967 318.635 C 283.875 318.545,282.630 319.555,281.200 320.881 M242.300 320.629 C 240.805 321.440,240.896 321.778,242.400 321.000 C 243.060 320.659,243.600 320.294,243.600 320.190 C 243.600 319.932,243.557 319.947,242.300 320.629 M118.800 321.779 C 118.800 321.889,119.340 322.259,120.000 322.600 C 120.660 322.941,121.200 323.131,121.200 323.021 C 121.200 322.911,120.660 322.541,120.000 322.200 C 119.340 321.859,118.800 321.669,118.800 321.779 M86.140 327.503 C 86.296 327.756,86.991 328.367,87.684 328.860 C 88.377 329.354,88.817 329.550,88.660 329.297 C 88.504 329.044,87.809 328.433,87.116 327.940 C 86.423 327.446,85.983 327.250,86.140 327.503 M270.300 329.414 C 269.255 330.180,268.400 330.905,268.400 331.023 C 268.400 331.311,271.892 328.898,272.203 328.395 C 272.578 327.788,272.348 327.911,270.300 329.414 M222.800 329.200 C 222.267 329.545,222.267 329.588,222.800 329.588 C 223.130 329.588,223.670 329.413,224.000 329.200 C 224.533 328.855,224.533 328.812,224.000 328.812 C 223.670 328.812,223.130 328.987,222.800 329.200 M90.400 330.525 C 90.400 330.624,91.061 331.209,91.868 331.825 C 92.676 332.441,93.211 332.741,93.056 332.491 C 92.740 331.979,90.400 330.247,90.400 330.525 M140.400 330.800 C 140.730 331.013,141.270 331.188,141.600 331.188 C 142.133 331.188,142.133 331.145,141.600 330.800 C 141.270 330.587,140.730 330.412,140.400 330.412 C 139.867 330.412,139.867 330.455,140.400 330.800 M143.200 331.600 C 143.530 331.813,144.070 331.988,144.400 331.988 C 144.933 331.988,144.933 331.945,144.400 331.600 C 144.070 331.387,143.530 331.212,143.200 331.212 C 142.667 331.212,142.667 331.255,143.200 331.600 M266.481 332.172 C 264.623 333.485,264.362 333.861,265.931 332.962 C 266.663 332.543,267.450 331.975,267.680 331.700 C 268.271 330.993,267.993 331.102,266.481 332.172 M146.000 332.400 C 146.330 332.613,146.870 332.788,147.200 332.788 C 147.733 332.788,147.733 332.745,147.200 332.400 C 146.870 332.187,146.330 332.012,146.000 332.012 C 145.467 332.012,145.467 332.055,146.000 332.400 M94.366 333.482 C 94.897 333.877,96.067 334.613,96.966 335.118 C 97.865 335.622,98.165 335.712,97.634 335.318 C 97.103 334.923,95.933 334.187,95.034 333.682 C 94.135 333.178,93.835 333.088,94.366 333.482 M149.200 333.200 C 149.530 333.413,150.070 333.588,150.400 333.588 C 150.933 333.588,150.933 333.545,150.400 333.200 C 150.070 332.987,149.530 332.812,149.200 332.812 C 148.667 332.812,148.667 332.855,149.200 333.200 M209.000 333.200 C 208.496 333.417,208.422 333.544,208.800 333.544 C 209.130 333.544,209.760 333.389,210.200 333.200 C 210.704 332.983,210.778 332.856,210.400 332.856 C 210.070 332.856,209.440 333.011,209.000 333.200 M152.400 334.000 C 152.730 334.213,153.450 334.373,154.000 334.354 L 155.000 334.320 154.000 334.000 C 152.458 333.506,151.636 333.506,152.400 334.000 M205.600 334.000 C 204.796 334.257,204.757 334.323,205.400 334.332 C 205.840 334.338,206.560 334.189,207.000 334.000 C 208.019 333.562,206.968 333.562,205.600 334.000 M157.200 334.800 C 157.750 334.976,158.650 335.120,159.200 335.120 L 160.200 335.120 159.200 334.800 C 158.650 334.624,157.750 334.480,157.200 334.480 L 156.200 334.480 157.200 334.800 M200.200 334.800 C 199.122 335.074,199.102 335.106,200.000 335.113 C 200.550 335.117,201.450 334.976,202.000 334.800 C 203.344 334.369,201.892 334.369,200.200 334.800 M162.400 335.600 C 162.950 335.776,163.850 335.920,164.400 335.920 L 165.400 335.920 164.400 335.600 C 163.850 335.424,162.950 335.280,162.400 335.280 L 161.400 335.280 162.400 335.600 M195.000 335.600 C 193.922 335.874,193.902 335.906,194.800 335.913 C 195.350 335.917,196.250 335.776,196.800 335.600 C 198.144 335.169,196.692 335.169,195.000 335.600 M173.900 336.463 C 177.035 336.633,182.165 336.633,185.300 336.463 C 190.300 336.193,189.601 336.155,179.600 336.155 C 169.599 336.155,168.900 336.193,173.900 336.463 M259.500 336.629 C 258.895 336.957,258.400 337.310,258.400 337.413 C 258.400 337.799,259.032 337.557,260.000 336.800 C 261.189 335.870,261.011 335.809,259.500 336.629 M100.800 337.567 C 101.763 338.352,102.400 338.608,102.400 338.210 C 102.400 338.106,101.815 337.735,101.100 337.386 L 99.800 336.752 100.800 337.567 M248.400 342.800 C 247.190 343.439,246.341 343.971,246.513 343.981 C 246.938 344.007,250.800 342.036,250.800 341.793 C 250.800 341.526,250.855 341.503,248.400 342.800 M143.000 354.800 C 143.440 354.989,144.160 355.144,144.600 355.144 L 145.400 355.144 144.600 354.800 C 144.160 354.611,143.440 354.456,143.000 354.456 L 142.200 354.456 143.000 354.800 M215.000 354.800 C 214.496 355.017,214.422 355.144,214.800 355.144 C 215.130 355.144,215.760 354.989,216.200 354.800 C 216.704 354.583,216.778 354.456,216.400 354.456 C 216.070 354.456,215.440 354.611,215.000 354.800 M147.000 355.600 C 147.440 355.789,148.070 355.944,148.400 355.944 C 148.778 355.944,148.704 355.817,148.200 355.600 C 147.760 355.411,147.130 355.256,146.800 355.256 C 146.422 355.256,146.496 355.383,147.000 355.600 M211.000 355.600 L 210.200 355.944 211.000 355.944 C 211.440 355.944,212.160 355.789,212.600 355.600 L 213.400 355.256 212.600 355.256 C 212.160 355.256,211.440 355.411,211.000 355.600 M151.000 356.400 C 151.440 356.589,152.160 356.744,152.600 356.744 L 153.400 356.744 152.600 356.400 C 152.160 356.211,151.440 356.056,151.000 356.056 L 150.200 356.056 151.000 356.400 M206.800 356.400 C 206.008 356.654,205.967 356.720,206.600 356.720 C 207.040 356.720,207.850 356.576,208.400 356.400 C 209.192 356.146,209.233 356.080,208.600 356.080 C 208.160 356.080,207.350 356.224,206.800 356.400 M155.400 357.200 C 155.840 357.389,156.740 357.535,157.400 357.525 L 158.600 357.505 157.400 357.200 C 156.740 357.032,155.840 356.886,155.400 356.875 L 154.600 356.856 155.400 357.200 M202.200 357.200 C 201.122 357.474,201.102 357.506,202.000 357.513 C 202.550 357.517,203.450 357.376,204.000 357.200 C 205.344 356.769,203.892 356.769,202.200 357.200 M161.400 357.980 C 162.634 358.315,165.464 358.518,165.167 358.250 C 165.075 358.168,163.920 358.000,162.600 357.877 C 161.022 357.730,160.611 357.765,161.400 357.980 M195.600 358.000 L 194.200 358.295 195.600 358.300 C 196.370 358.303,197.540 358.168,198.200 358.000 L 199.400 357.695 198.200 357.700 C 197.540 357.703,196.370 357.838,195.600 358.000 M174.053 358.863 C 177.052 359.035,182.092 359.034,185.253 358.861 C 190.401 358.580,189.832 358.547,179.800 358.548 C 170.019 358.549,169.291 358.589,174.053 358.863 " stroke="none" fill="#30a5fc" fill-rule="evenodd"></path><path id="path2" d="M0.000 200.000 L 0.000 400.000 200.000 400.000 L 400.000 400.000 400.000 200.000 L 400.000 0.000 200.000 0.000 L 0.000 0.000 0.000 200.000 M203.672 6.853 C 211.252 8.478,214.311 16.837,209.713 23.360 C 207.793 26.084,205.806 26.960,201.000 27.200 L 197.000 27.400 197.000 38.800 L 197.000 50.200 199.000 50.466 C 200.100 50.612,202.260 50.942,203.800 51.200 C 215.375 53.137,217.712 53.704,227.800 57.018 C 242.746 61.927,257.147 69.054,267.942 76.884 L 271.284 79.308 278.442 72.158 C 286.538 64.072,286.088 64.811,284.087 62.869 C 276.583 55.584,280.490 44.632,290.600 44.616 C 295.150 44.609,294.992 44.488,310.137 59.543 C 325.959 75.270,325.763 75.021,325.781 79.400 C 325.823 89.507,314.771 93.592,307.381 86.202 C 306.390 85.211,305.403 84.400,305.187 84.400 C 304.360 84.400,291.981 97.237,292.292 97.771 C 292.462 98.061,293.749 99.536,295.154 101.049 C 306.613 113.393,316.817 129.802,323.605 146.800 C 325.622 151.852,328.678 161.063,328.865 162.654 L 329.000 163.800 317.382 163.906 L 305.765 164.012 305.254 162.506 C 304.286 159.653,303.135 156.598,302.768 155.905 C 302.566 155.523,302.400 155.002,302.400 154.747 C 302.400 153.988,295.839 140.739,293.782 137.344 C 287.499 126.976,277.256 113.962,271.288 108.766 C 270.469 108.054,268.450 106.256,266.800 104.771 C 262.357 100.772,248.089 90.400,247.031 90.400 C 246.949 90.400,245.738 89.711,244.341 88.869 C 240.948 86.824,233.094 83.044,228.400 81.197 C 226.039 80.267,219.344 78.046,216.400 77.215 C 215.410 76.936,214.150 76.562,213.600 76.385 C 211.659 75.761,205.763 74.464,202.800 74.010 C 201.150 73.757,198.810 73.379,197.600 73.171 C 188.392 71.587,171.898 71.595,161.698 73.191 C 160.322 73.406,157.892 73.778,156.298 74.019 C 153.147 74.494,151.384 74.889,145.800 76.373 C 141.909 77.407,134.655 79.683,132.900 80.421 C 132.405 80.630,131.595 80.962,131.100 81.159 C 129.317 81.871,124.935 83.781,122.000 85.126 C 102.573 94.028,78.413 115.591,68.133 133.200 C 67.684 133.970,66.428 136.040,65.342 137.800 C 63.098 141.438,59.578 148.512,57.181 154.200 C 56.455 155.923,53.876 163.096,53.370 164.800 C 51.913 169.704,51.326 172.077,50.249 177.400 C 47.938 188.831,47.806 190.305,47.816 204.400 C 47.823 212.658,48.001 218.385,48.304 220.102 C 48.567 221.588,48.980 224.108,49.221 225.702 C 49.463 227.296,49.819 229.320,50.011 230.200 C 50.203 231.080,50.572 232.790,50.830 234.000 C 51.088 235.210,51.436 236.650,51.603 237.200 C 51.770 237.750,52.100 238.920,52.336 239.800 C 53.544 244.315,54.932 248.544,56.439 252.300 C 56.638 252.795,56.962 253.605,57.159 254.100 C 59.002 258.716,63.056 266.893,65.341 270.600 C 66.425 272.360,67.848 274.697,68.501 275.793 C 77.400 290.723,97.606 310.004,113.400 318.637 C 113.840 318.878,114.878 319.461,115.706 319.934 C 123.429 324.340,133.096 328.392,141.600 330.786 C 142.590 331.065,143.850 331.431,144.400 331.600 C 144.950 331.769,146.210 332.120,147.200 332.381 C 148.190 332.641,149.540 333.002,150.200 333.183 C 151.585 333.562,154.908 334.158,159.200 334.796 C 160.850 335.042,163.151 335.427,164.314 335.653 C 167.050 336.185,192.102 336.190,194.883 335.660 C 196.047 335.438,198.530 335.049,200.400 334.795 C 242.453 329.080,282.895 298.105,300.407 258.200 C 303.472 251.216,305.093 246.795,306.788 240.800 C 307.068 239.810,307.515 238.280,307.782 237.400 L 308.266 235.800 319.733 235.694 C 330.895 235.591,331.200 235.609,331.200 236.372 C 331.200 241.305,323.463 263.408,318.029 274.000 C 308.159 293.237,293.692 311.294,278.200 323.712 C 277.760 324.065,275.913 325.543,274.095 326.996 C 271.074 329.413,259.821 337.101,258.400 337.720 C 258.070 337.864,256.900 338.525,255.800 339.189 C 253.945 340.309,245.213 344.691,242.000 346.114 C 235.324 349.071,222.564 353.372,216.400 354.744 C 210.828 355.983,209.917 356.162,204.200 357.141 C 192.382 359.165,169.764 359.608,161.480 357.978 C 160.424 357.770,158.942 357.600,158.186 357.600 C 157.430 357.600,156.044 357.430,155.106 357.223 C 154.168 357.015,152.500 356.673,151.400 356.461 C 144.327 355.102,141.587 354.511,140.000 354.003 C 139.450 353.827,137.650 353.286,136.000 352.800 C 127.118 350.185,117.411 346.378,109.906 342.567 C 105.152 340.153,102.747 338.790,97.600 335.595 C 86.965 328.991,74.760 318.832,66.200 309.457 C 64.220 307.289,62.409 305.309,62.175 305.057 C 61.266 304.079,55.263 296.464,53.405 293.932 C 48.942 287.850,41.888 275.622,38.792 268.600 C 38.307 267.500,37.481 265.650,36.955 264.488 C 36.430 263.327,36.000 262.199,36.000 261.983 C 36.000 261.766,35.841 261.277,35.647 260.895 C 34.727 259.087,31.982 251.102,30.801 246.800 C 30.530 245.810,30.165 244.550,29.992 244.000 C 29.692 243.049,29.267 241.292,28.420 237.500 C 24.537 220.110,23.845 201.685,26.351 182.400 C 26.887 178.275,27.380 175.553,28.451 170.800 C 29.460 166.319,29.696 165.337,29.992 164.400 C 30.165 163.850,30.532 162.590,30.807 161.600 C 31.505 159.084,34.343 150.407,34.863 149.200 C 35.100 148.650,35.452 147.887,35.647 147.505 C 35.841 147.123,36.000 146.634,36.000 146.417 C 36.000 146.201,36.430 145.073,36.955 143.912 C 37.481 142.750,38.307 140.900,38.792 139.800 C 41.912 132.723,48.764 120.853,53.332 114.611 C 57.869 108.412,58.922 107.111,65.000 100.204 C 66.320 98.704,67.446 97.368,67.501 97.235 C 67.557 97.102,64.633 94.028,61.005 90.405 L 54.407 83.816 51.904 86.278 C 45.939 92.143,37.851 90.952,34.013 83.643 C 33.227 82.145,33.373 77.204,34.256 75.485 C 35.257 73.533,62.568 46.150,64.379 45.281 C 74.915 40.230,84.100 54.356,75.629 62.581 C 73.448 64.698,73.102 64.093,81.056 72.056 L 88.111 79.119 94.041 75.160 C 97.302 72.982,100.049 71.200,100.144 71.200 C 100.240 71.200,101.462 70.507,102.859 69.660 C 105.541 68.034,111.376 65.012,114.400 63.683 C 115.390 63.247,117.010 62.527,118.000 62.081 C 122.692 59.970,127.909 58.094,137.000 55.250 C 142.660 53.479,155.531 50.930,162.000 50.298 L 163.000 50.200 163.000 38.800 L 163.000 27.400 158.788 27.200 C 154.260 26.985,151.462 25.809,150.024 23.518 C 145.690 16.609,148.399 8.747,155.726 6.971 C 158.532 6.290,200.567 6.187,203.672 6.853 M182.584 76.454 L 183.639 77.708 183.520 87.383 C 183.384 98.337,183.383 98.342,180.258 98.695 C 178.841 98.854,178.353 98.709,177.282 97.807 L 176.000 96.729 176.000 87.086 L 176.000 77.444 177.075 76.322 C 178.662 74.666,181.129 74.725,182.584 76.454 M191.600 131.799 C 193.470 132.120,195.720 132.579,196.600 132.817 C 197.480 133.056,198.933 133.408,199.828 133.600 C 207.346 135.211,219.235 141.627,227.584 148.579 C 231.680 151.991,240.800 162.398,240.800 163.661 C 240.800 163.847,238.319 164.000,235.286 164.000 L 229.772 164.000 227.880 161.749 C 212.754 143.758,185.902 135.836,162.600 142.488 C 151.362 145.697,140.673 152.200,133.202 160.374 L 129.888 164.000 124.301 164.000 C 117.820 164.000,118.030 164.335,121.592 159.675 C 132.905 144.872,149.678 134.839,168.400 131.677 C 172.097 131.052,187.738 131.134,191.600 131.799 M93.281 178.355 C 95.040 179.259,95.843 181.407,95.159 183.380 C 94.317 185.808,93.236 186.176,86.500 186.330 L 80.800 186.459 80.800 203.042 C 80.800 222.990,80.742 223.267,76.561 223.267 C 75.073 223.267,74.469 223.051,73.642 222.225 L 72.600 221.183 72.480 203.791 L 72.361 186.400 67.240 186.400 C 64.424 186.400,61.508 186.200,60.760 185.955 C 56.728 184.636,56.539 179.584,60.467 178.134 C 62.485 177.390,91.786 177.587,93.281 178.355 M122.800 178.609 C 127.948 180.424,131.888 184.206,134.038 189.400 C 136.333 194.943,134.552 201.853,129.567 206.739 L 127.923 208.351 129.099 209.875 C 134.812 217.277,135.691 219.090,134.596 221.208 C 132.849 224.586,128.893 223.943,126.353 219.868 C 125.644 218.730,124.111 216.326,122.946 214.524 L 120.827 211.248 115.713 211.457 C 112.901 211.572,110.375 211.735,110.100 211.820 C 109.740 211.932,109.600 213.205,109.600 216.381 C 109.600 220.634,109.562 220.829,108.500 221.973 C 106.891 223.707,104.293 223.783,102.655 222.145 L 101.600 221.091 101.600 202.419 C 101.600 190.883,101.437 182.863,101.173 181.435 C 100.443 177.490,100.361 177.520,111.385 177.691 C 119.236 177.812,120.926 177.948,122.800 178.609 M233.293 178.181 C 235.845 179.247,236.000 179.844,236.000 188.586 C 236.000 196.253,236.126 196.973,237.281 195.900 C 237.577 195.625,238.985 194.415,240.410 193.210 C 241.834 192.006,243.090 190.925,243.200 190.808 C 243.310 190.691,244.570 189.607,246.000 188.400 C 247.430 187.193,248.690 186.107,248.800 185.988 C 249.632 185.086,257.181 178.821,257.874 178.458 C 260.457 177.104,264.000 179.174,264.000 182.039 C 264.000 183.761,262.606 185.269,256.421 190.233 C 252.889 193.067,250.000 195.557,250.000 195.765 C 250.000 196.194,251.787 199.070,256.733 206.600 C 264.682 218.703,265.171 219.920,262.971 222.120 C 260.282 224.809,257.755 223.901,254.834 219.199 C 254.083 217.990,252.801 215.920,251.984 214.600 C 251.168 213.280,249.550 210.670,248.389 208.800 C 247.228 206.930,245.723 204.448,245.046 203.284 C 243.515 200.657,243.318 200.681,239.236 204.000 L 236.038 206.600 236.019 213.441 C 236.001 219.889,235.948 220.360,235.085 221.640 C 233.656 223.759,230.879 223.970,229.010 222.101 L 228.000 221.091 228.000 202.419 C 228.000 190.883,227.837 182.863,227.573 181.435 C 226.901 177.804,229.226 176.482,233.293 178.181 M290.566 178.174 C 304.200 181.726,308.755 196.507,299.282 206.458 L 297.513 208.316 299.226 210.858 C 300.169 212.256,301.055 213.490,301.196 213.600 C 305.396 216.876,304.912 223.309,300.465 223.309 C 298.275 223.309,297.968 223.001,293.738 216.545 L 290.200 211.145 287.841 211.373 C 286.544 211.498,284.069 211.600,282.341 211.600 L 279.200 211.600 279.200 215.613 C 279.200 221.605,278.201 223.309,274.688 223.309 C 273.532 223.309,272.851 223.033,272.064 222.246 L 271.000 221.183 270.799 199.891 C 270.626 181.649,270.680 178.528,271.175 178.100 C 272.043 177.349,287.627 177.409,290.566 178.174 M330.566 178.174 C 344.200 181.726,348.755 196.507,339.282 206.458 L 337.513 208.316 339.226 210.858 C 340.169 212.256,341.055 213.490,341.196 213.600 C 345.396 216.876,344.912 223.309,340.465 223.309 C 338.275 223.309,337.968 223.001,333.738 216.545 L 330.200 211.145 327.841 211.373 C 326.544 211.498,324.069 211.600,322.341 211.600 L 319.200 211.600 319.200 215.613 C 319.200 221.605,318.201 223.309,314.688 223.309 C 313.532 223.309,312.851 223.033,312.064 222.246 L 311.000 221.183 310.799 199.891 C 310.626 181.649,310.680 178.528,311.175 178.100 C 312.043 177.349,327.627 177.409,330.566 178.174 M372.400 178.609 C 377.548 180.424,381.488 184.206,383.638 189.400 C 385.933 194.943,384.152 201.853,379.167 206.739 L 377.523 208.351 378.699 209.875 C 384.412 217.277,385.291 219.090,384.196 221.208 C 382.449 224.586,378.493 223.943,375.953 219.868 C 375.244 218.730,373.711 216.326,372.546 214.524 L 370.427 211.248 365.313 211.457 C 362.501 211.572,359.975 211.735,359.700 211.820 C 359.340 211.932,359.200 213.205,359.200 216.381 C 359.200 220.634,359.162 220.829,358.100 221.973 C 356.491 223.707,353.893 223.783,352.255 222.145 L 351.200 221.091 351.200 202.419 C 351.200 190.883,351.037 182.863,350.773 181.435 C 350.043 177.490,349.961 177.520,360.985 177.691 C 368.836 177.812,370.526 177.948,372.400 178.609 M158.494 178.360 C 160.155 178.991,161.306 181.425,168.729 200.000 C 176.559 219.597,176.762 220.324,174.900 222.098 C 171.906 224.949,168.919 223.366,166.722 217.763 L 165.400 214.389 157.023 214.495 L 148.646 214.600 147.381 217.757 C 145.549 222.326,144.576 223.400,142.266 223.400 C 138.906 223.400,137.109 220.016,138.703 216.688 C 139.999 213.982,152.801 181.284,152.801 180.682 C 152.799 178.679,155.952 177.393,158.494 178.360 M207.122 178.381 C 212.923 179.220,220.000 184.469,220.000 187.932 C 220.000 191.368,216.432 193.082,213.559 191.028 C 210.148 188.589,208.091 187.333,206.772 186.885 C 204.975 186.275,200.000 186.254,198.519 186.851 C 195.367 188.120,193.771 189.137,192.213 190.870 C 180.223 204.206,197.353 222.877,211.554 211.950 C 215.902 208.605,217.247 208.367,219.440 210.560 C 221.659 212.779,221.158 214.472,217.192 218.143 C 203.431 230.884,180.000 220.003,180.000 200.873 C 180.000 186.173,192.028 176.198,207.122 178.381 M109.693 194.700 L 109.800 204.200 114.833 204.142 C 123.158 204.047,126.539 201.398,126.566 194.951 C 126.593 188.365,122.451 185.230,113.693 185.210 L 109.586 185.200 109.693 194.700 M279.060 185.787 C 278.459 187.355,278.771 203.478,279.414 204.011 C 280.243 204.700,288.455 204.271,290.455 203.435 C 297.923 200.315,297.991 190.180,290.572 186.118 C 288.750 185.121,279.419 184.853,279.060 185.787 M319.060 185.787 C 318.459 187.355,318.771 203.478,319.414 204.011 C 320.243 204.700,328.455 204.271,330.455 203.435 C 337.923 200.315,337.991 190.180,330.572 186.118 C 328.750 185.121,319.419 184.853,319.060 185.787 M359.293 194.700 L 359.400 204.200 364.433 204.142 C 372.758 204.047,376.139 201.398,376.166 194.951 C 376.193 188.365,372.051 185.230,363.293 185.210 L 359.186 185.200 359.293 194.700 M156.477 192.700 C 156.284 193.085,155.361 195.380,154.425 197.800 C 152.410 203.015,152.022 203.974,151.553 204.895 C 151.359 205.277,151.200 206.042,151.200 206.595 L 151.200 207.600 156.976 207.600 C 160.570 207.600,162.851 207.442,163.012 207.181 C 163.220 206.844,161.008 200.803,157.855 193.100 C 157.333 191.825,156.969 191.720,156.477 192.700 M124.055 236.300 C 124.374 236.685,124.880 237.491,125.181 238.092 C 129.192 246.115,140.919 256.688,151.600 261.912 C 159.536 265.794,162.371 266.613,174.033 268.397 C 177.433 268.917,182.603 268.911,185.954 268.383 C 187.409 268.153,189.770 267.781,191.200 267.555 C 202.098 265.833,214.537 259.906,221.910 252.920 C 222.190 252.655,223.247 251.759,224.259 250.930 C 226.659 248.964,230.894 243.801,233.847 239.244 L 236.200 235.612 240.900 235.606 C 246.298 235.599,246.255 235.559,244.433 238.875 C 233.575 258.635,216.761 271.027,193.800 276.193 C 186.220 277.898,172.392 277.829,165.000 276.049 C 151.240 272.735,142.676 268.497,131.800 259.621 C 125.618 254.575,114.000 239.224,114.000 236.100 C 114.000 235.225,123.319 235.411,124.055 236.300 M182.456 310.364 C 183.395 311.124,183.401 311.180,183.519 320.885 C 183.662 332.508,183.573 332.800,179.897 332.800 C 176.026 332.800,176.000 332.723,176.000 321.385 L 176.000 311.709 177.055 310.655 C 178.375 309.334,181.007 309.192,182.456 310.364 " stroke="none" fill="#fbfbfb" fill-rule="evenodd"></path></g></svg>